<mxfile host="app.diagrams.net" modified="2021-09-20T15:30:17.247Z" agent="5.0 (Windows NT 10.0; Win64; x64) AppleWebKit/537.36 (KHTML, like Gecko) Chrome/93.0.4577.82 Safari/537.36" etag="GiI9BrHKd7AJM12-xaka" version="15.2.9" type="github">
  <diagram id="pOJiQdmHAIXQLhJW4bCQ" name="Page-1">
    <mxGraphModel dx="1303" dy="727" grid="1" gridSize="10" guides="1" tooltips="1" connect="1" arrows="1" fold="1" page="1" pageScale="1" pageWidth="827" pageHeight="1169" math="0" shadow="0">
      <root>
        <mxCell id="0" />
        <mxCell id="1" parent="0" />
        <mxCell id="gdhfUJUkiknWJ6vqBpCv-2" value="" style="ellipse;whiteSpace=wrap;html=1;" vertex="1" parent="1">
          <mxGeometry x="20" y="40" width="120" height="80" as="geometry" />
        </mxCell>
        <mxCell id="gdhfUJUkiknWJ6vqBpCv-3" value="" style="ellipse;whiteSpace=wrap;html=1;" vertex="1" parent="1">
          <mxGeometry x="180" y="40" width="120" height="80" as="geometry" />
        </mxCell>
        <mxCell id="gdhfUJUkiknWJ6vqBpCv-4" value="" style="ellipse;whiteSpace=wrap;html=1;" vertex="1" parent="1">
          <mxGeometry x="340" y="40" width="120" height="80" as="geometry" />
        </mxCell>
        <mxCell id="gdhfUJUkiknWJ6vqBpCv-5" value="" style="ellipse;whiteSpace=wrap;html=1;" vertex="1" parent="1">
          <mxGeometry x="500" y="40" width="120" height="80" as="geometry" />
        </mxCell>
        <mxCell id="gdhfUJUkiknWJ6vqBpCv-6" value="" style="ellipse;whiteSpace=wrap;html=1;" vertex="1" parent="1">
          <mxGeometry x="660" y="40" width="120" height="80" as="geometry" />
        </mxCell>
        <mxCell id="gdhfUJUkiknWJ6vqBpCv-14" value="" style="ellipse;whiteSpace=wrap;html=1;" vertex="1" parent="1">
          <mxGeometry x="20" y="290" width="120" height="80" as="geometry" />
        </mxCell>
        <mxCell id="gdhfUJUkiknWJ6vqBpCv-15" value="" style="ellipse;whiteSpace=wrap;html=1;" vertex="1" parent="1">
          <mxGeometry x="340" y="290" width="120" height="80" as="geometry" />
        </mxCell>
        <mxCell id="gdhfUJUkiknWJ6vqBpCv-16" value="" style="ellipse;whiteSpace=wrap;html=1;" vertex="1" parent="1">
          <mxGeometry x="660" y="290" width="120" height="80" as="geometry" />
        </mxCell>
        <mxCell id="gdhfUJUkiknWJ6vqBpCv-18" value="" style="endArrow=classic;html=1;entryX=0.5;entryY=0;entryDx=0;entryDy=0;" edge="1" parent="1" target="gdhfUJUkiknWJ6vqBpCv-16">
          <mxGeometry width="50" height="50" relative="1" as="geometry">
            <mxPoint x="560" y="120" as="sourcePoint" />
            <mxPoint x="670" y="140" as="targetPoint" />
          </mxGeometry>
        </mxCell>
        <mxCell id="gdhfUJUkiknWJ6vqBpCv-19" value="" style="endArrow=classic;html=1;exitX=0.5;exitY=1;exitDx=0;exitDy=0;entryX=0.5;entryY=0;entryDx=0;entryDy=0;" edge="1" parent="1" source="gdhfUJUkiknWJ6vqBpCv-5" target="gdhfUJUkiknWJ6vqBpCv-46">
          <mxGeometry width="50" height="50" relative="1" as="geometry">
            <mxPoint x="370" y="250" as="sourcePoint" />
            <mxPoint x="560" y="300" as="targetPoint" />
          </mxGeometry>
        </mxCell>
        <mxCell id="gdhfUJUkiknWJ6vqBpCv-20" value="" style="endArrow=classic;html=1;" edge="1" parent="1">
          <mxGeometry width="50" height="50" relative="1" as="geometry">
            <mxPoint x="400" y="120" as="sourcePoint" />
            <mxPoint x="400" y="280" as="targetPoint" />
            <Array as="points">
              <mxPoint x="400" y="300" />
            </Array>
          </mxGeometry>
        </mxCell>
        <mxCell id="gdhfUJUkiknWJ6vqBpCv-21" value="" style="endArrow=classic;html=1;entryX=0.5;entryY=0;entryDx=0;entryDy=0;" edge="1" parent="1" target="gdhfUJUkiknWJ6vqBpCv-14">
          <mxGeometry width="50" height="50" relative="1" as="geometry">
            <mxPoint x="400" y="120" as="sourcePoint" />
            <mxPoint x="500" y="130" as="targetPoint" />
          </mxGeometry>
        </mxCell>
        <mxCell id="gdhfUJUkiknWJ6vqBpCv-22" value="" style="endArrow=classic;html=1;exitX=0.5;exitY=1;exitDx=0;exitDy=0;entryX=0.5;entryY=0;entryDx=0;entryDy=0;" edge="1" parent="1" source="gdhfUJUkiknWJ6vqBpCv-4" target="gdhfUJUkiknWJ6vqBpCv-39">
          <mxGeometry width="50" height="50" relative="1" as="geometry">
            <mxPoint x="370" y="250" as="sourcePoint" />
            <mxPoint x="240" y="300" as="targetPoint" />
          </mxGeometry>
        </mxCell>
        <mxCell id="gdhfUJUkiknWJ6vqBpCv-23" value="" style="endArrow=classic;html=1;exitX=0.5;exitY=1;exitDx=0;exitDy=0;" edge="1" parent="1" source="gdhfUJUkiknWJ6vqBpCv-6">
          <mxGeometry width="50" height="50" relative="1" as="geometry">
            <mxPoint x="370" y="250" as="sourcePoint" />
            <mxPoint x="400" y="290" as="targetPoint" />
          </mxGeometry>
        </mxCell>
        <mxCell id="gdhfUJUkiknWJ6vqBpCv-24" value="" style="endArrow=classic;html=1;" edge="1" parent="1">
          <mxGeometry width="50" height="50" relative="1" as="geometry">
            <mxPoint x="720" y="120" as="sourcePoint" />
            <mxPoint x="240" y="290" as="targetPoint" />
          </mxGeometry>
        </mxCell>
        <mxCell id="gdhfUJUkiknWJ6vqBpCv-25" value="EVENT 1" style="text;html=1;strokeColor=none;fillColor=none;align=center;verticalAlign=middle;whiteSpace=wrap;rounded=0;" vertex="1" parent="1">
          <mxGeometry x="60" y="70" width="40" height="20" as="geometry" />
        </mxCell>
        <mxCell id="gdhfUJUkiknWJ6vqBpCv-26" value="EVENT 2" style="text;html=1;strokeColor=none;fillColor=none;align=center;verticalAlign=middle;whiteSpace=wrap;rounded=0;" vertex="1" parent="1">
          <mxGeometry x="220" y="70" width="40" height="20" as="geometry" />
        </mxCell>
        <mxCell id="gdhfUJUkiknWJ6vqBpCv-27" value="EVENT 3" style="text;html=1;strokeColor=none;fillColor=none;align=center;verticalAlign=middle;whiteSpace=wrap;rounded=0;" vertex="1" parent="1">
          <mxGeometry x="380" y="70" width="40" height="20" as="geometry" />
        </mxCell>
        <mxCell id="gdhfUJUkiknWJ6vqBpCv-28" value="EVENT 4" style="text;html=1;strokeColor=none;fillColor=none;align=center;verticalAlign=middle;whiteSpace=wrap;rounded=0;" vertex="1" parent="1">
          <mxGeometry x="540" y="70" width="40" height="20" as="geometry" />
        </mxCell>
        <mxCell id="gdhfUJUkiknWJ6vqBpCv-29" value="EVENT 5" style="text;html=1;strokeColor=none;fillColor=none;align=center;verticalAlign=middle;whiteSpace=wrap;rounded=0;" vertex="1" parent="1">
          <mxGeometry x="700" y="70" width="40" height="20" as="geometry" />
        </mxCell>
        <mxCell id="gdhfUJUkiknWJ6vqBpCv-30" value="&lt;span style=&quot;color: rgb(10 , 48 , 105) ; font-family: , , &amp;#34;sf mono&amp;#34; , &amp;#34;menlo&amp;#34; , &amp;#34;consolas&amp;#34; , &amp;#34;liberation mono&amp;#34; , monospace ; background-color: rgb(255 , 255 , 255)&quot;&gt;PINARALPER&lt;/span&gt;" style="text;html=1;strokeColor=none;fillColor=none;align=center;verticalAlign=middle;whiteSpace=wrap;rounded=0;" vertex="1" parent="1">
          <mxGeometry x="60" y="320" width="40" height="20" as="geometry" />
        </mxCell>
        <mxCell id="gdhfUJUkiknWJ6vqBpCv-31" value="CAROLEGOBLE" style="text;html=1;strokeColor=none;fillColor=none;align=center;verticalAlign=middle;whiteSpace=wrap;rounded=0;" vertex="1" parent="1">
          <mxGeometry x="380" y="320" width="40" height="20" as="geometry" />
        </mxCell>
        <mxCell id="gdhfUJUkiknWJ6vqBpCv-33" style="edgeStyle=orthogonalEdgeStyle;rounded=0;orthogonalLoop=1;jettySize=auto;html=1;exitX=0.5;exitY=1;exitDx=0;exitDy=0;" edge="1" parent="1" source="gdhfUJUkiknWJ6vqBpCv-14" target="gdhfUJUkiknWJ6vqBpCv-14">
          <mxGeometry relative="1" as="geometry" />
        </mxCell>
        <mxCell id="gdhfUJUkiknWJ6vqBpCv-37" value="&lt;span style=&quot;color: rgb(36 , 41 , 47) ; font-family: , , &amp;#34;sf mono&amp;#34; , &amp;#34;menlo&amp;#34; , &amp;#34;consolas&amp;#34; , &amp;#34;liberation mono&amp;#34; , monospace ; background-color: rgb(255 , 255 , 255)&quot;&gt;2006-05-16&lt;/span&gt;" style="text;html=1;strokeColor=none;fillColor=none;align=center;verticalAlign=middle;whiteSpace=wrap;rounded=0;" vertex="1" parent="1">
          <mxGeometry x="540" y="320" width="40" height="20" as="geometry" />
        </mxCell>
        <mxCell id="gdhfUJUkiknWJ6vqBpCv-38" value="OSCARCORCHO" style="text;html=1;strokeColor=none;fillColor=none;align=center;verticalAlign=middle;whiteSpace=wrap;rounded=0;" vertex="1" parent="1">
          <mxGeometry x="700" y="320" width="40" height="20" as="geometry" />
        </mxCell>
        <mxCell id="gdhfUJUkiknWJ6vqBpCv-39" value="" style="ellipse;whiteSpace=wrap;html=1;" vertex="1" parent="1">
          <mxGeometry x="180" y="290" width="120" height="80" as="geometry" />
        </mxCell>
        <mxCell id="gdhfUJUkiknWJ6vqBpCv-45" value="2006-05-15" style="text;html=1;strokeColor=none;fillColor=none;align=center;verticalAlign=middle;whiteSpace=wrap;rounded=0;" vertex="1" parent="1">
          <mxGeometry x="220" y="320" width="40" height="20" as="geometry" />
        </mxCell>
        <mxCell id="gdhfUJUkiknWJ6vqBpCv-46" value="" style="ellipse;whiteSpace=wrap;html=1;" vertex="1" parent="1">
          <mxGeometry x="500" y="280" width="120" height="80" as="geometry" />
        </mxCell>
        <mxCell id="gdhfUJUkiknWJ6vqBpCv-48" value="2006-05-16" style="text;html=1;strokeColor=none;fillColor=none;align=center;verticalAlign=middle;whiteSpace=wrap;rounded=0;" vertex="1" parent="1">
          <mxGeometry x="540" y="310" width="40" height="20" as="geometry" />
        </mxCell>
      </root>
    </mxGraphModel>
  </diagram>
</mxfile>
